<?xml version="1.0" encoding="UTF-8" standalone="no"?>
<svg
   xmlns:dc="http://purl.org/dc/elements/1.1/"
   xmlns:cc="http://creativecommons.org/ns#"
   xmlns:rdf="http://www.w3.org/1999/02/22-rdf-syntax-ns#"
   xmlns:svg="http://www.w3.org/2000/svg"
   xmlns="http://www.w3.org/2000/svg"
   id="svg2"
   version="1.1"
   xml:space="preserve"
   style="enable-background:new 0 0 47.5 47.5;"
   viewBox="0 0 47.5 47.5"><metadata
     id="metadata8"><rdf:RDF><cc:Work
         rdf:about=""><dc:format>image/svg+xml</dc:format><dc:type
           rdf:resource="http://purl.org/dc/dcmitype/StillImage" /><dc:title></dc:title></cc:Work></rdf:RDF></metadata><defs
     id="defs6"><clipPath
       clipPathUnits="userSpaceOnUse"
       id="clipPath16"><path
         d="M 0,38 38,38 38,0 0,0 0,38 Z"
         id="path18" /></clipPath></defs><g
     transform="matrix(1.25,0,0,-1.25,0,47.5)"
     id="g12"><g
       clip-path="url(#clipPath16)"
       id="g14"><g
         transform="matrix(-1,0,0,1,17.274878,34.0532)"
         id="g20"><path
           id="path22"
           style="fill:#d99e82;fill-opacity:1;fill-rule:nonzero;stroke:none"
           d="m 0,0 c -1.956,0.416 -2.372,-1.54 -2.372,-1.54 l -3.097,-11.569 c -0.446,-0.024 -0.878,-0.063 -1.305,-0.107 l -2.061,10.512 c 0,0 -0.188,1.991 -2.18,1.804 -1.991,-0.188 -1.803,-2.179 -1.803,-2.179 l 2.175,-11.974 0.23,0 2,0 1.783,0 0.748,0 0.469,0 3,0 c 0.208,0 0.411,-0.022 0.607,-0.062 L 1.54,-2.372 c 0,0 0.416,1.957 -1.54,2.372" /></g><g
         transform="matrix(-1,0,0,1,8.6879778,14.917)"
         id="g24"><path
           id="path26"
           style="fill:#d99e82;fill-opacity:1;fill-rule:nonzero;stroke:none"
           d="m 0,0 c 0,-1.059 -0.857,-1.917 -1.916,-1.917 l -0.168,0 C -3.143,-1.917 -4,-1.059 -4,0 l 0,4.166 c 0,1.059 0.857,1.917 1.916,1.917 l 0.168,0 C -0.857,6.083 0,5.225 0,4.166 L 0,0 Z" /></g><g
         transform="matrix(-1,0,0,1,15.687978,23)"
         id="g28"><path
           id="path30"
           style="fill:#d99e82;fill-opacity:1;fill-rule:nonzero;stroke:none"
           d="m 0,0 c -1.104,0 -2,-0.896 -2,-2 l 0,-2.778 C -1.391,-5.327 -1,-6.114 -1,-7 -1,-7.753 -1.287,-8.433 -1.745,-8.959 -1.404,-9.576 -0.755,-10 0,-10 c 1.104,0 2,0.896 2,2 l 0,6 C 2,-0.896 1.104,0 0,0" /></g><g
         transform="matrix(-1,0,0,1,10.625478,12)"
         id="g32"><path
           id="path34"
           style="fill:#d99e82;fill-opacity:1;fill-rule:nonzero;stroke:none"
           d="M 0.33528622,6.8337781 C -0.24163719,7.0728866 -1.1506552,7.5748175 -2.2859522,8.0597435 -3.5163308,8.3355982 -4.2272994,8.8556534 -7.0229585,9.1557816 -9.756116,9.0888481 -14.462842,9.0449624 -17.129175,8.1975804 c -0.03145,-0.00999 -0.063,-0.008 -0.095,-0.01 -0.072,-0.003 -0.144,-0.01 -0.216,-0.021 -0.062,-0.01 -0.126123,0.00274 -0.186123,-0.01226 -0.201456,-0.027624 -0.401629,-0.086415 -0.577356,-0.1446575 -0.114657,-0.040129 -0.193029,-0.061518 -0.339918,-0.129096 -0.150778,-0.090639 -0.263517,-0.1692774 -0.394808,-0.2646439 -0.06286,-0.056 -0.190848,-0.2226056 -0.219848,-0.2816056 -0.06711,-0.065123 -0.106454,-0.1463395 -0.130454,-0.2113395 -0.011,-0.032 -0.166016,-0.4501366 -0.166016,-0.4501366 L -19.881012,4.9817281 C -19.984012,4.6467281 -20.541,-0.871 -20.473,-1.191 -20.473,-6 -15.777,-11 -10.063,-11 -3.525,-11 1.8895926,-5.769 2.0325926,0.734 1.9861605,2.816827 2.2428887,4.9325012 1.5400862,5.5840567" /></g></g></g></svg>